<svg xmlns="http://www.w3.org/2000/svg" xmlns:xlink="http://www.w3.org/1999/xlink" viewBox="0 0 404.03 134.44"><defs><style>.cls-1,.cls-13{fill:#161639;}.cls-2{fill:#8b89a7;}.cls-3,.cls-5{opacity:0.17;}.cls-4,.cls-5,.cls-8{fill:#b9b8c9;}.cls-6{fill:#b6b6c6;}.cls-7{fill:#737391;}.cls-8{opacity:0.6;}.cls-9{fill:url(#linear-gradient);}.cls-10{fill:url(#linear-gradient-2);}.cls-11{fill:url(#linear-gradient-3);}.cls-12{fill:#adadbc;}.cls-13{opacity:0.47;}.cls-14{fill:#d6d6ea;}.cls-15,.cls-16{fill:none;stroke-linecap:round;stroke-miterlimit:10;}.cls-15{stroke:#1f1f2b;opacity:0.5;}.cls-16{stroke:#d6d6ea;}</style><linearGradient id="linear-gradient" x1="238.42" y1="56.3" x2="242.71" y2="51.89" gradientUnits="userSpaceOnUse"><stop offset="0" stop-color="#3a3a59" stop-opacity="0"/><stop offset="0.11" stop-color="#484865" stop-opacity="0.05"/><stop offset="0.3" stop-color="#6c6c85" stop-opacity="0.2"/><stop offset="0.55" stop-color="#a7a7ba" stop-opacity="0.43"/><stop offset="0.62" stop-color="#b9b8c9" stop-opacity="0.5"/></linearGradient><linearGradient id="linear-gradient-2" x1="327.35" y1="85.52" x2="335.49" y2="77.9" gradientUnits="userSpaceOnUse"><stop offset="0" stop-color="#3a3a59" stop-opacity="0"/><stop offset="0.1" stop-color="#484865" stop-opacity="0.05"/><stop offset="0.27" stop-color="#6c6c85" stop-opacity="0.2"/><stop offset="0.5" stop-color="#a7a7ba" stop-opacity="0.43"/><stop offset="0.56" stop-color="#b9b8c9" stop-opacity="0.5"/></linearGradient><linearGradient id="linear-gradient-3" x1="222.66" y1="129.87" x2="277.91" y2="187.52" gradientUnits="userSpaceOnUse"><stop offset="0" stop-color="#b9b8c9"/><stop offset="0.32" stop-color="#aeadc1"/><stop offset="0.88" stop-color="#9290ac"/><stop offset="1" stop-color="#8b89a7"/></linearGradient></defs><title>boat</title><g id="Layer_2" data-name="Layer 2"><g id="Layer_30" data-name="Layer 30"><polygon class="cls-1" points="81.28 101.52 192.74 99.97 202.01 91.27 340.98 87.94 329.78 77.68 108.88 77.68 81.28 101.52"/><polygon class="cls-1" points="136.87 64.68 160.79 46 226.67 46.5 236.5 49.62 252.67 62.1 261.71 69.33 177.18 72.96 141.56 71.68 136.87 64.68"/><path class="cls-2" d="M160.6,29.51h-3.54a3.2,3.2,0,0,0-3.2,3.2v4a3.21,3.21,0,0,0,3.2,3.21h.25V42h3.45v-2.1a3.2,3.2,0,0,0,3.05-3.19v-4A3.21,3.21,0,0,0,160.6,29.51Z"/><path class="cls-2" d="M194.66,21.88l.22-1.37-14.59-2.2L180,19.77l7.23,1v1.07h-.12a1.63,1.63,0,0,0-1.62,1.62,1.64,1.64,0,0,0,.65,1.3l-13-.25c-.69-2.24-1.39-4.47-2.06-6.52h0c3.74-1.43,13.27-1.19,13.27-1.19V16l-3.18.07V13.23h-4.85v1.6h-1.88v-1.6l-1.6,1.6h1.23v1.38h0l-3.56.08h0a55.92,55.92,0,0,0-2.91-7.73H172V7.69l-1.61-.05,0-3.84h-1.47V7.51h-1.92V2.29h3L170,0h-.87V1.79h-2.54V7.51h-2V6.77h-.82V8.56h.87c.1.3.36,1.07.71,2.2h-1.12l1.48,1.16c.62,2.05,1.41,4.82,2.15,7.85h-2.26l2.86,2.64c.41,1.91.78,3.86,1,5.76l-3.9-.16,2.24,3.39,1-2.2h.84c.07.56.12,1.11.17,1.65.82,9.61.82,11,.82,11h7.63S176.61,36,174.55,29.2h5.74V30h1.32V28.84h-7.17c-.11-.38-.23-.76-.35-1.14,1.63-.88,6.2-1.35,10.25-1.6v1.55l-1.26,1.19h3.66l-1.28-1.37,0-1.43c3.32-.19,6-.22,6-.22V24.9l-2.29,0a1.62,1.62,0,0,0-.89-3h-.17v-.94Z"/><g class="cls-3"><polygon class="cls-4" points="158 67.96 158 55.52 164.63 51.95 164.63 67.96 158 67.96"/><polygon class="cls-4" points="165.64 51.17 167.61 50.12 167.61 67.96 165.64 67.96 165.64 51.17"/><rect class="cls-4" x="168.84" y="50.12" width="7.46" height="17.84"/><rect class="cls-4" x="177.45" y="50.12" width="1.69" height="17.84"/><rect class="cls-4" x="180.29" y="50.12" width="8.1" height="17.84"/><polygon class="cls-4" points="143.16 64.43 151.91 59.35 151.91 68.29 142.71 68.57 140.28 65.95 143.16 64.43"/><polygon class="cls-4" points="152.91 58.48 157.31 56.26 157.31 67.96 152.91 67.96 152.91 58.48"/></g><rect class="cls-5" x="135.61" y="82.58" width="4.67" height="17.76"/><rect class="cls-5" x="142.75" y="82.58" width="5.31" height="17.76"/><rect class="cls-5" x="149.89" y="82.58" width="13.92" height="18.68"/><rect class="cls-5" x="166.19" y="82.58" width="2.65" height="18.68"/><rect class="cls-5" x="170.67" y="82.58" width="8.47" height="17.76"/><polygon class="cls-5" points="200.61 81.07 227.4 80.68 227.4 86.58 200.61 86.97 200.61 81.07"/><polygon class="cls-5" points="230.67 80.64 254.63 80.29 254.63 86.17 230.67 86.52 230.67 80.64"/><polygon class="cls-5" points="257.89 80.24 281.85 79.89 281.85 85.76 257.89 86.13 257.89 80.24"/><polygon class="cls-5" points="313.82 79.43 313.82 85.29 285.11 85.72 285.11 79.85 313.82 79.43"/><polygon class="cls-6" points="335.61 82.98 404.03 83.22 400 88.22 342.51 89.31 335.61 82.98"/><path class="cls-4" d="M194.39,62.47l6.4-3.12h48.39s3.8,1.83,3.49,2.75a1.55,1.55,0,0,1-1.34,1Z"/><path class="cls-7" d="M85.11,100.58S106.4,81.14,109.7,81.1l-22.61.29L70.32,100.45Z"/><path class="cls-7" d="M135.06,51.18,119.51,66l19.21-1.41s7.38-7.18,20.49-14.12Z"/><polygon class="cls-2" points="87.09 81.39 92.04 81.39 73.36 100.7 70.17 100.6 87.09 81.39"/><polygon class="cls-2" points="135.06 51.17 119.51 65.95 124.16 65.61 140.09 51.02 135.06 51.17"/><path class="cls-4" d="M236.77,49.62s-1.93-6.37-46.23-7.51c-2.14,0-5.77-.19-5.77-.19s-65-1.36-68.93,6.33h23.34l-4.12,2.93,52.83-1.29Z"/><rect class="cls-8" x="214.1" y="51.97" width="5.43" height="6.1"/><polygon class="cls-8" points="237.6 57.95 223.74 57.95 223.74 52.09 231.43 52.09 237.6 57.95"/><polygon class="cls-9" points="231.34 49.47 242.22 59.6 249.18 59.35 236.71 49.68 231.34 49.47"/><polygon class="cls-10" points="329.78 77.68 339.58 86.6 331.22 86.86 322.06 77.94 329.78 77.68"/><path class="cls-11" d="M330.61,86.88c-42.39,1.19-131.46,2.29-131.46,2.29a35.37,35.37,0,0,1-7.86,6.51L47.11,97.37l-3.92,4.31-1.69,1H22.28C16.05,108,5.16,124.6,5.16,124.6l-.09,4.67-5.07,0,1,5.21s40.52-1.06,100.33-.08c0,0,37.36-.24,71.48-.76,85-1.29,171.4-4.69,215.37-6.56L404,83.22h0S373,85.69,330.61,86.88ZM176.34,97v2l-12.79.17V97.14Zm-13.92.16v2.07l-12,.16V97.29Zm-13.09.15v2.09l-12.54.17V97.45Zm-13.67.16v2.11l-12.54.17V97.61Zm-41,.48v2.18l-12.54.17v-2.2ZM81,98.1v2.21l-12.54.16V98.25Zm-13.67.16v2.23l-12.54.17V98.41Zm-21.89,2.52L47.6,98.5l6-.08v2.25Zm50.36-.67V97.93l12.55-.15v2.16Zm13.67-.18V97.77L122,97.62v2.14Zm71.85-1-3.83.05V97l11.71-.13A18.28,18.28,0,0,1,181.29,99Z"/><path class="cls-12" d="M95.77,68.69H94.64V58.86a3.38,3.38,0,0,1,6.75,0h-1.13a2.25,2.25,0,0,0-4.49,0Z"/><path class="cls-4" d="M91.62,69.39H90.49V59.57a3.37,3.37,0,1,1,6.74,0H96.11a2.25,2.25,0,1,0-4.49,0Z"/><circle class="cls-1" cx="150.99" cy="120.38" r="2.32"/><ellipse class="cls-1" cx="260.13" cy="119.5" rx="1.97" ry="2.08"/><ellipse class="cls-1" cx="282.74" cy="119.12" rx="1.69" ry="1.88"/><ellipse class="cls-1" cx="332.79" cy="117.71" rx="2.09" ry="1.6" transform="translate(115.06 395.57) rotate(-71.4)"/><ellipse class="cls-1" cx="318.42" cy="117.9" rx="2.09" ry="1.6" transform="translate(105.1 382.07) rotate(-71.4)"/><ellipse class="cls-1" cx="304.14" cy="118.57" rx="2.09" ry="1.6" transform="translate(94.74 368.99) rotate(-71.4)"/><rect class="cls-13" x="5.16" y="126.87" width="107.84" height="1.13"/><rect class="cls-14" x="5.16" y="128" width="106.97" height="1.13"/><line class="cls-15" x1="33.24" y1="115.95" x2="300.55" y2="110.33"/><line class="cls-16" x1="33.2" y1="115.08" x2="300.52" y2="109.46"/><path class="cls-4" d="M328.59,76.65A26,26,0,0,0,315.53,71c-6-1-40.77-2.67-40.77-2.67l-6.16-3.65-75.68-1.57-54.19,1.47c-23.19.79-90.54,9.8-90.54,9.8L38.48,82l182-2.39c87.51-1,109.31-2,109.31-2A10.87,10.87,0,0,0,328.59,76.65ZM145.62,68l-4.53-2.25,19.78-.51v2.3ZM162,67.48v-2.3l19.28-.51V66.9Zm25.43-.74-5,.15V64.65l8.48-.22Z"/></g></g></svg>