<svg xmlns="http://www.w3.org/2000/svg" viewBox="0 0 236.3 11.75"><defs><style>.cls-1{fill:#b9b8c9;opacity:0.42;}</style></defs><g id="Layer_2" data-name="Layer 2"><g id="Layer_30" data-name="Layer 30"><path class="cls-1" d="M147.76,5.14c-31.92,1.07-44-5.17-67.46-3C72.6,2.86,69.84,3.91,61.16,4,51.84,4.05,49,2.88,36.52,2.05c-15-1-28.1-.47-28.22-.09s15.25.83,15.24,1.63C23.54,4.58.26,4.65,0,5.81c-.21,1,14.79,3,26.14,1.45,5.68-.76,5.5-1.74,10.7-2.41C49.42,3.22,68.81,6.62,68,8.22c-.75,1.44-17.89,1.31-17.84,2.12s14,2.29,25.29.77C86.24,9.65,87.1,6.35,94.57,6.29c7.73-.06,13,3.43,15.89,3s-2.91-4.09,1-5C115.92,3.2,126.22,7.48,143.87,8c14.51.44,16-2.19,31.78-2,16.88.18,20,3.25,37.3,3.18,11.3,0,23.21-1.41,23.35-2.7.09-.82-4.7-1.15-23.35-3.75C196.16.38,194.42-.14,189.6,0c-8.09.28-9.37,2-21.08,3.56A193.78,193.78,0,0,1,147.76,5.14Z"/></g></g></svg>