<svg xmlns="http://www.w3.org/2000/svg" viewBox="0 0 137.82 10.3"><defs><style>.cls-1{fill:#b9b8c9;opacity:0.42;}</style></defs><g id="Layer_2" data-name="Layer 2"><g id="Layer_30" data-name="Layer 30"><path class="cls-1" d="M16,2.55C25.54,1.42,25.92.34,30.47.46,36,.61,36.16,2.2,43.69,2.65a47.66,47.66,0,0,0,9.53-.26c3.86-.56,3.56-1.23,7.07-1.77A41.7,41.7,0,0,1,73.82,1c4.14.89,3,1.78,6.61,2.56C87.31,5.05,97.87,3.21,99.18,3c6.4-1.15,5.75-2.15,10.91-2.72a58.75,58.75,0,0,1,17.37,1.12c6.8,1.38,10.94,3.6,10.3,3.85-.4.15-2.7-.49-10.76-2.09-8.78-1.74-9.73-1.7-10-1.6-1.17.46,7.46,3.66,6.61,4s-7.47-2.42-11.38-1.81c-3.24.5-2.45,3-4.45,3s-3.28-2.28-5.69-2.29c-3.76,0-4.92,5.68-9.84,5.87-3.93.16-5-3.42-12.6-4.43C70.39,4.64,58.41,8.12,57.52,7.62c-.63-.36,6.18-1.7,5.38-2.56C61.79,3.85,46.26,4,45.23,5.32c-.69.88,5.13,2,4.61,2.3S42.53,5.7,34,5.54C23,5.33,18.88,8.78,9.1,8.1,3.73,7.73-.42,6.32,0,5.91c.72-.64,13.74.63,14.15.16S5.24,4.71,5.57,3.83C5.78,3.28,9.57,3.31,16,2.55Z"/></g></g></svg>