<svg xmlns="http://www.w3.org/2000/svg" viewBox="0 0 453.45 153.84"><defs><style>.cls-1{fill:#b9b8c9;}</style></defs><g id="Layer_2" data-name="Layer 2"><g id="Layer_30" data-name="Layer 30"><circle class="cls-1" cx="30.14" cy="46.38" r="0.91"/><circle class="cls-1" cx="51.77" cy="28.25" r="1.61"/><circle class="cls-1" cx="72.32" cy="12.43" r="1.08"/><circle class="cls-1" cx="133.46" cy="22.39" r="1.96"/><circle class="cls-1" cx="30.67" cy="82.26" r="0.53"/><circle class="cls-1" cx="84.19" cy="58.53" r="0.53"/><circle class="cls-1" cx="40.31" cy="54.05" r="0.53"/><circle class="cls-1" cx="158.09" cy="29.86" r="0.53"/><circle class="cls-1" cx="198.79" cy="23.65" r="0.53"/><circle class="cls-1" cx="137.41" cy="63.63" r="0.53"/><circle class="cls-1" cx="110.99" cy="50.8" r="0.53"/><circle class="cls-1" cx="166.41" cy="7.34" r="0.53"/><circle class="cls-1" cx="146.06" cy="82.26" r="0.53"/><circle class="cls-1" cx="160.78" cy="142.59" r="0.53"/><circle class="cls-1" cx="232.31" cy="35.34" r="0.53"/><circle class="cls-1" cx="286.27" cy="17.87" r="0.53"/><circle class="cls-1" cx="274.8" cy="5.94" r="0.53"/><circle class="cls-1" cx="284.53" cy="143.65" r="0.53"/><circle class="cls-1" cx="6.68" cy="27.17" r="0.53"/><circle class="cls-1" cx="0.53" cy="83.33" r="0.53"/><circle class="cls-1" cx="35.12" cy="109.51" r="0.53"/><circle class="cls-1" cx="56.06" cy="0.53" r="0.53"/><circle class="cls-1" cx="99.01" cy="14.57" r="0.53"/><circle class="cls-1" cx="81.5" cy="137.72" r="0.53"/><circle class="cls-1" cx="64.75" cy="73.84" r="1.35"/><circle class="cls-1" cx="94.7" cy="100.93" r="1.35"/><circle class="cls-1" cx="193.14" cy="45.03" r="1.35"/><circle class="cls-1" cx="230.97" cy="93.46" r="1.35"/><circle class="cls-1" cx="305.13" cy="4.59" r="1.35"/><circle class="cls-1" cx="327.58" cy="152.49" r="1.35"/><circle class="cls-1" cx="422.26" cy="25.63" r="1.35"/><circle class="cls-1" cx="228.27" cy="18.4" r="1.35"/><circle class="cls-1" cx="444.97" cy="131.35" r="0.53"/><circle class="cls-1" cx="435.84" cy="100.11" r="0.53"/><circle class="cls-1" cx="452.92" cy="35.88" r="0.53"/><circle class="cls-1" cx="428.2" cy="2.71" r="0.53"/><circle class="cls-1" cx="420.37" cy="124.09" r="0.53"/><circle class="cls-1" cx="151.67" cy="104.71" r="0.53"/></g></g></svg>