<svg xmlns="http://www.w3.org/2000/svg" viewBox="0 0 456.51 39.72"><defs><style>.cls-1{fill:#3a3a59;}</style></defs><title>wave1</title><g id="Layer_2" data-name="Layer 2"><g id="Layer_30" data-name="Layer 30"><path class="cls-1" d="M32.88,9.72c2.49,5.6-22.4,6.07-32.88,5.84,2.6,2.13,8.94,2.86,14.57,2.91s11.46-.35,16.76.46c8.61,1.3,14.17,5.5,23.24,5.91C38.88,22.76,20.66,24.67,9,29.62c11.14-2.2,23.46-4.46,35.3-3.08,6.21.72,11.57,2.38,17.48,3.46,13,2.38,27.68,1.87,41.73,1.33-11.62-.12-23.06-2.23-31.22-5.76,20,3.9,42.69-1.5,64.6-2.34,22.36-.85,44,3.17,64.47,7.09-15.46,5.47-37.81,7.13-56.68,4.22,9.38,4,24.13,4.5,37.18,3.65s25.68-2.87,38.86-3.11c18.78-.36,36.81,2.87,55.35,4.18s40.65,0,50.75-6.76c-13.15,3.85-31.73,4-45.12.26-2.67-.73-5.42-2-4.11-3.28.84-.79,3-1.13,4.93-1.37,44.81-5.6,100.85,11.61,135.29,9.49-24.42-3.34-39.51-5.06-49.47-12A296.58,296.58,0,0,0,439,25.51a277.59,277.59,0,0,1-55.14-5.73c19.27,2.13,60,.08,72.67-15.83-11.74,4.15-27.25,8.6-40.87-.64C410.78,8.66,367.73,13,364.42,0c-4.9,7.18-93.83,16.76-79.55.77-15,17.45-109.45,14.55-107.66,5.4-7.85,9.57-81.46,14.07-78.86-2.58C90,17.41,38.49,16.36,32.88,9.72Z"/></g></g></svg>