<svg xmlns="http://www.w3.org/2000/svg" viewBox="0 0 222.83 155.47"><defs><style>.cls-1{fill:#fff;}.cls-2{fill:#99c24c;}.cls-3{fill:#f28a51;}</style></defs><title>logo</title><g id="Layer_2" data-name="Layer 2"><g id="Layer_2-2" data-name="Layer 2"><path class="cls-1" d="M140.64,69.78h-6.29V86.42h-6V69.78H122V64.54h18.61Z"/><path class="cls-1" d="M156.14,75.2a12.21,12.21,0,0,0-3.08.37A3.87,3.87,0,0,0,151,76.8v9.62h-5.85V70.21h5.36v3.08a6.85,6.85,0,0,1,2.14-2.51,4.78,4.78,0,0,1,2.76-.88,5.28,5.28,0,0,1,.74,0Z"/><path class="cls-1" d="M165.63,86.73a6.41,6.41,0,0,1-2.25-.4,5.61,5.61,0,0,1-1.8-1.1A5,5,0,0,1,160,81.52a4.85,4.85,0,0,1,.53-2.25,5.53,5.53,0,0,1,1.44-1.76,6.8,6.8,0,0,1,2.21-1.14A9.61,9.61,0,0,1,167,76a7.58,7.58,0,0,1,3.26.62V76.1a2.1,2.1,0,0,0-.66-1.7,3.31,3.31,0,0,0-2.14-.55,7.06,7.06,0,0,0-2.56.44,12.9,12.9,0,0,0-2.46,1.31L160.7,72A13.18,13.18,0,0,1,168,69.9a9.16,9.16,0,0,1,6,1.73,6.3,6.3,0,0,1,2.1,5.17V80a1.92,1.92,0,0,0,.25,1.15,1.15,1.15,0,0,0,.86.39v4.93c-.47.1-.92.18-1.34.23a9.8,9.8,0,0,1-1.13.08,4.14,4.14,0,0,1-2.38-.57,2.67,2.67,0,0,1-1.07-1.68l-.12-.59a7.33,7.33,0,0,1-2.5,2.11A6.44,6.44,0,0,1,165.63,86.73Zm1.76-4.19a3.79,3.79,0,0,0,1.08-.17,4.22,4.22,0,0,0,1-.45,2.41,2.41,0,0,0,.56-.54,1,1,0,0,0,.21-.6v-1.2a7.28,7.28,0,0,0-1.14-.31,5.85,5.85,0,0,0-1.11-.12,2.91,2.91,0,0,0-1.78.52,1.57,1.57,0,0,0-.71,1.33,1.33,1.33,0,0,0,.54,1.1A2.1,2.1,0,0,0,167.39,82.54Z"/><path class="cls-1" d="M189.18,86.73a7.59,7.59,0,0,1-3.07-.62,7.1,7.1,0,0,1-2.42-1.74,8,8,0,0,1-1.58-2.68,9.61,9.61,0,0,1-.57-3.41,10.28,10.28,0,0,1,.52-3.33,8.43,8.43,0,0,1,1.46-2.66,6.71,6.71,0,0,1,2.24-1.76,6.42,6.42,0,0,1,2.86-.63,6,6,0,0,1,2.88.71,4.87,4.87,0,0,1,2,2V63.92h5.86V80a1.92,1.92,0,0,0,.25,1.15,1.15,1.15,0,0,0,.86.39v4.93a13.4,13.4,0,0,1-2.47.31q-3,0-3.45-2.25l-.12-.59a5.09,5.09,0,0,1-2.25,2.16A7,7,0,0,1,189.18,86.73Zm1.6-4.93a3.36,3.36,0,0,0,2.77-1.67V77.24a4.18,4.18,0,0,0-1.26-1.75,2.78,2.78,0,0,0-1.76-.66,2.48,2.48,0,0,0-1.18.28,2.74,2.74,0,0,0-.93.77,4.14,4.14,0,0,0-.61,1.14,3.94,3.94,0,0,0-.24,1.39,3.44,3.44,0,0,0,.88,2.46A3.06,3.06,0,0,0,190.78,81.8Z"/><path class="cls-1" d="M214,86.73a10,10,0,0,1-3.79-.67,8,8,0,0,1-2.79-1.8,7.72,7.72,0,0,1-1.71-2.62,8.34,8.34,0,0,1-.58-3.11,9.71,9.71,0,0,1,.57-3.33,7.65,7.65,0,0,1,1.69-2.74,8.35,8.35,0,0,1,2.78-1.87,10.95,10.95,0,0,1,7.65,0,8.4,8.4,0,0,1,2.79,1.85,7.7,7.7,0,0,1,1.7,2.68,9.05,9.05,0,0,1,.57,3.19c0,.31,0,.63-.05.94a8.47,8.47,0,0,1-.11.85H211.3a2.28,2.28,0,0,0,1,1.87,3.33,3.33,0,0,0,1.88.57,3.89,3.89,0,0,0,1.8-.44,2.13,2.13,0,0,0,1.13-1.2l5,1.42a7.83,7.83,0,0,1-3,3.17A9.51,9.51,0,0,1,214,86.73Zm2.59-10.14a3,3,0,0,0-.86-1.85,2.78,2.78,0,0,0-3.64,0,3,3,0,0,0-.86,1.85Z"/><path class="cls-1" d="M153,97a77.72,77.72,0,1,1-1.11-42.49h-6.31A71.75,71.75,0,1,0,146.79,97Z"/><path class="cls-2" d="M69,95.74a35.25,35.25,0,0,1-15.71.54A34.26,34.26,0,0,0,68.4,93.85a35.45,35.45,0,0,0,12.18-8.56,48.91,48.91,0,0,0,3.71-4.56,35.66,35.66,0,0,0,.42-5.57,32.44,32.44,0,0,0-1.84-11,25,25,0,0,0-14.4-15.08,32,32,0,0,0-12.4-2.24H34.23v56.8H56.07a32.39,32.39,0,0,0,11.76-2,26,26,0,0,0,9-5.76,24.65,24.65,0,0,0,4.51-6.15A37.07,37.07,0,0,1,69,95.74ZM49.83,60.44h6.24a12.93,12.93,0,0,1,5.36,1.08,11.34,11.34,0,0,1,4,3A13.54,13.54,0,0,1,68,69.16a19.28,19.28,0,0,1,.88,6A20,20,0,0,1,68,81.08a13.64,13.64,0,0,1-2.48,4.72,11.41,11.41,0,0,1-4,3.12A12.66,12.66,0,0,1,56.07,90H49.83Z"/><path class="cls-3" d="M107.58,75.86l16.74-29h-14.8l-10,16.85L88.69,46.84H78a28.7,28.7,0,0,1,7.32,5.59,29.56,29.56,0,0,1,6.29,10.39,36.78,36.78,0,0,1,2.07,12.34A36.27,36.27,0,0,1,91.4,88.33a29,29,0,0,1-16.17,16.61l-11.59,19.7H79.52L99.85,89.27l9,14.37h16.8Z"/></g></g></svg>